grf
version=1
nRows=17
nColumns=37
inDegrees=no
endheader
time	ground_force_1_vx	ground_force_1_vy	ground_force_1_vz	ground_force_1_px	ground_force_1_py	ground_force_1_pz	ground_moment_1_mx	ground_moment_1_my	ground_moment_1_mz	ground_force_2_vx	ground_force_2_vy	ground_force_2_vz	ground_force_2_px	ground_force_2_py	ground_force_2_pz	ground_moment_2_mx	ground_moment_2_my	ground_moment_2_mz	ground_force_3_vx	ground_force_3_vy	ground_force_3_vz	ground_force_3_px	ground_force_3_py	ground_force_3_pz	ground_moment_3_mx	ground_moment_3_my	ground_moment_3_mz	ground_force_4_vx	ground_force_4_vy	ground_force_4_vz	ground_force_4_px	ground_force_4_py	ground_force_4_pz	ground_moment_4_mx	ground_moment_4_my	ground_moment_4_mz
      1.96000000	      0.00000000	     -0.00000000	      0.00000000	      0.00000000	      0.00000000	      0.00000000	      0.00000000	      0.00000000	      0.00000000	     -0.92786825	     43.67735291	   -402.35565186	   -329.77691042	  -1090.78748384	      0.00000000	     -0.00000000	      0.00000000	   3138.25014878	     -7.83153083	    -41.09701851	   -377.89047241	   -293.34895964	   -685.30768294	      0.00000000	      0.00000000	     -0.00000000	  -1506.76555008	      0.00000000	     -0.00000000	      0.00000000	      0.00000000	      0.00000000	      0.00000000	      0.00000000	      0.00000000	      0.00000000
      1.97000000	      0.00000000	     -0.00000000	      0.00000000	      0.00000000	      0.00000000	      0.00000000	      0.00000000	      0.00000000	      0.00000000	     -0.48539472	     39.56338501	   -386.64871216	   -331.21481739	  -1089.79214773	      0.00000000	      0.00000000	      0.00000000	   2873.88037153	     -9.28971827	    -39.58201136	   -369.90457153	   -294.32823548	   -686.93970027	      0.00000000	      0.00000000	     -0.00000000	  -1333.39391509	      0.00000000	     -0.00000000	      0.00000000	      0.00000000	      0.00000000	      0.00000000	      0.00000000	      0.00000000	      0.00000000
      1.98000000	      0.00000000	     -0.00000000	      0.00000000	      0.00000000	      0.00000000	      0.00000000	      0.00000000	      0.00000000	      0.00000000	     -1.96263123	     35.35551834	   -368.85330200	   -332.24153191	  -1088.34904541	      0.00000000	      0.00000000	      0.00000000	   2633.94314608	    -10.92208241	    -38.00305843	   -359.77981567	   -294.97655198	   -686.86533717	      0.00000000	      0.00000000	     -0.00000000	  -1210.87047884	      0.00000000	     -0.00000000	      0.00000000	      0.00000000	      0.00000000	      0.00000000	      0.00000000	      0.00000000	      0.00000000
      1.99000000	      0.00000000	     -0.00000000	      0.00000000	      0.00000000	      0.00000000	      0.00000000	      0.00000000	      0.00000000	      0.00000000	     -4.64891958	     32.08694458	   -348.76464844	   -333.47132317	  -1086.07147717	      0.00000000	      0.00000000	      0.00000000	   2436.34180674	    -11.56759678	    -36.66780752	   -349.01312256	   -296.07841060	   -685.83631545	      0.00000000	      0.00000000	     -0.00000000	  -1209.65842724	      0.00000000	     -0.00000000	      0.00000000	      0.00000000	      0.00000000	      0.00000000	      0.00000000	      0.00000000	      0.00000000
      2.00000000	      0.00000000	     -0.00000000	      0.00000000	      0.00000000	      0.00000000	      0.00000000	      0.00000000	      0.00000000	      0.00000000	     -7.13684082	     30.33880043	   -328.41876221	   -332.70348031	  -1086.43378817	      0.00000000	      0.00000000	      0.00000000	   1958.81136753	    -11.41896830	    -33.88076301	   -331.40209961	   -296.94067007	   -687.50811380	      0.00000000	     -0.00000000	     -0.00000000	   -908.98187829	      0.00000000	     -0.00000000	      0.00000000	      0.00000000	      0.00000000	      0.00000000	      0.00000000	      0.00000000	      0.00000000
      2.01000000	      0.00000000	     -0.00000000	      0.00000000	      0.00000000	      0.00000000	      0.00000000	      0.00000000	      0.00000000	      0.00000000	     -9.98579884	     30.36305237	   -307.80050659	   -332.50429313	  -1087.62318973	      0.00000000	      0.00000000	      0.00000000	   1759.97006842	    -11.66052897	    -30.83896726	   -314.64373779	   -297.38883665	   -686.93955414	      0.00000000	      0.00000000	     -0.00000000	   -940.09311198	      0.00000000	     -0.00000000	      0.00000000	      0.00000000	      0.00000000	      0.00000000	      0.00000000	      0.00000000	      0.00000000
      2.02000000	      0.00000000	     -0.00000000	      0.00000000	      0.00000000	      0.00000000	      0.00000000	      0.00000000	      0.00000000	      0.00000000	    -12.76630211	     30.63007927	   -289.43731689	   -331.73702005	  -1086.84457484	      0.00000000	      0.00000000	      0.00000000	   1543.31215451	    -12.40456632	    -27.68404661	   -297.78836060	   -297.89295906	   -686.95317826	      0.00000000	      0.00000000	     -0.00000000	   -828.43796583	      0.00000000	     -0.00000000	      0.00000000	      0.00000000	      0.00000000	      0.00000000	      0.00000000	      0.00000000	      0.00000000
      2.03000000	      0.00000000	     -0.00000000	      0.00000000	      0.00000000	      0.00000000	      0.00000000	      0.00000000	      0.00000000	      0.00000000	    -14.51014328	     31.27582169	   -271.55990601	   -331.18968228	  -1087.69860690	      0.00000000	      0.00000000	      0.00000000	   1226.66490195	    -12.63658840	    -25.33326229	   -278.89816284	   -297.62711707	   -686.70977700	      0.00000000	      0.00000000	     -0.00000000	   -798.96802321	      0.00000000	     -0.00000000	      0.00000000	      0.00000000	      0.00000000	      0.00000000	      0.00000000	      0.00000000	      0.00000000
      2.04000000	      0.00000000	     -0.00000000	      0.00000000	      0.00000000	      0.00000000	      0.00000000	      0.00000000	      0.00000000	      0.00000000	    -14.47656727	     31.53635788	   -256.98391724	   -330.53489357	  -1088.34412385	      0.00000000	      0.00000000	      0.00000000	   1166.76598139	    -14.35579040	    -24.85802716	   -260.72003174	   -297.45867664	   -688.65815212	      0.00000000	      0.00000000	     -0.00000000	   -642.35023073	      0.00000000	     -0.00000000	      0.00000000	      0.00000000	      0.00000000	      0.00000000	      0.00000000	      0.00000000	      0.00000000
      2.05000000	      0.00000000	     -0.00000000	      0.00000000	      0.00000000	      0.00000000	      0.00000000	      0.00000000	      0.00000000	      0.00000000	    -13.33276939	     30.53136063	   -243.30769348	   -330.57037657	  -1090.66577297	      0.00000000	      0.00000000	      0.00000000	   1066.05109642	    -17.52480746	    -27.34878005	   -253.73722839	   -298.16603382	   -684.93950358	      0.00000000	      0.00000000	     -0.00000000	   -334.21383399	      0.00000000	     -0.00000000	      0.00000000	      0.00000000	      0.00000000	      0.00000000	      0.00000000	      0.00000000	      0.00000000
      2.06000000	      0.00000000	     -0.00000000	      0.00000000	      0.00000000	      0.00000000	      0.00000000	      0.00000000	      0.00000000	      0.00000000	    -12.08397675	     30.10177231	   -231.91085815	   -331.01329486	  -1088.43334366	      0.00000000	     -0.00000000	      0.00000000	   1004.81343695	    -17.78224445	    -30.11049687	   -252.94352722	   -298.59594655	   -684.95335252	      0.00000000	      0.00000000	     -0.00000000	   -147.23018604	      0.00000000	     -0.00000000	      0.00000000	      0.00000000	      0.00000000	      0.00000000	      0.00000000	      0.00000000	      0.00000000
      2.07000000	      0.00000000	     -0.00000000	      0.00000000	      0.00000000	      0.00000000	      0.00000000	      0.00000000	      0.00000000	      0.00000000	    -11.54027462	     30.90400505	   -227.93101501	   -330.95933125	  -1089.91428840	      0.00000000	      0.00000000	      0.00000000	   1177.62833465	    -14.87850568	    -32.46235527	   -258.81683350	   -301.49539021	   -687.05084842	      0.00000000	      0.00000000	      0.00000000	    150.88188634	      0.00000000	     -0.00000000	      0.00000000	      0.00000000	      0.00000000	      0.00000000	      0.00000000	      0.00000000	      0.00000000
      2.08000000	      0.00000000	     -0.00000000	      0.00000000	      0.00000000	      0.00000000	      0.00000000	      0.00000000	      0.00000000	      0.00000000	    -11.50815582	     32.28939438	   -225.61634827	   -330.51621951	  -1088.10046258	      0.00000000	      0.00000000	      0.00000000	   1256.14851358	     -9.12104336	    -34.54988018	   -270.97351074	   -303.01248624	   -687.79208241	      0.00000000	      0.00000000	      0.00000000	    245.46904033	      0.00000000	     -0.00000000	      0.00000000	      0.00000000	      0.00000000	      0.00000000	      0.00000000	      0.00000000	      0.00000000
      2.09000000	      0.00000000	     -0.00000000	      0.00000000	      0.00000000	      0.00000000	      0.00000000	      0.00000000	      0.00000000	      0.00000000	    -10.04933167	     32.10374451	   -224.10716248	   -331.73549990	  -1087.90917144	      0.00000000	      0.00000000	      0.00000000	   1338.76414019	     -4.87909634	    -36.24365192	   -287.06384277	   -305.29160489	   -687.99926728	      0.00000000	      0.00000000	      0.00000000	    277.08575718	      0.00000000	     -0.00000000	      0.00000000	      0.00000000	      0.00000000	      0.00000000	      0.00000000	      0.00000000	      0.00000000
      2.10000000	      0.00000000	     -0.00000000	      0.00000000	      0.00000000	      0.00000000	      0.00000000	      0.00000000	      0.00000000	      0.00000000	     -6.77999878	     29.50216293	   -218.49504089	   -331.57219111	  -1088.16869865	      0.00000000	     -0.00000000	      0.00000000	   1543.72009033	     -1.64492012	    -36.95887742	   -300.45977783	   -305.94565108	   -688.83770853	      0.00000000	      0.00000000	      0.00000000	    370.21522950	      0.00000000	     -0.00000000	      0.00000000	      0.00000000	      0.00000000	      0.00000000	      0.00000000	      0.00000000	      0.00000000
      2.11000000	      0.00000000	     -0.00000000	      0.00000000	      0.00000000	      0.00000000	      0.00000000	      0.00000000	      0.00000000	      0.00000000	     -5.24974442	     27.90464783	   -215.24963379	   -331.21319779	  -1087.00514029	      0.00000000	      0.00000000	      0.00000000	   1762.94370860	      1.04781886	    -35.86587152	   -308.87600708	   -305.31040294	   -687.80830956	      0.00000000	      0.00000000	      0.00000000	    177.37678094	      0.00000000	     -0.00000000	      0.00000000	      0.00000000	      0.00000000	      0.00000000	      0.00000000	      0.00000000	      0.00000000
      2.12000000	      0.00000000	     -0.00000000	      0.00000000	      0.00000000	      0.00000000	      0.00000000	      0.00000000	      0.00000000	      0.00000000	     -4.26905012	     26.48259926	   -216.99031067	   -332.80077425	  -1087.38848502	      0.00000000	      0.00000000	      0.00000000	   2033.17913639	      1.95163410	    -36.23571031	   -315.82138062	   -306.62303278	   -690.29670064	      0.00000000	      0.00000000	     -0.00000000	    -97.16123927	      0.00000000	     -0.00000000	      0.00000000	      0.00000000	      0.00000000	      0.00000000	      0.00000000	      0.00000000	      0.00000000
